<?xml version="1.0" standalone="no"?>
<!DOCTYPE svg PUBLIC "-//W3C//DTD SVG 20010904//EN"
 "http://www.w3.org/TR/2001/REC-SVG-20010904/DTD/svg10.dtd">
<svg version="1.0" xmlns="http://www.w3.org/2000/svg"
 width="500.000000pt" height="500.000000pt" viewBox="0 0 500.000000 500.000000"
 preserveAspectRatio="xMidYMid meet">

<g transform="translate(0.000000,500.000000) scale(0.100000,-0.100000)"
fill="#000000" stroke="none">
<path d="M2355 3864 c-472 -48 -849 -289 -1098 -705 -14 -24 -20 -25 -166 -37
-337 -26 -511 -96 -511 -203 0 -41 49 -107 113 -153 89 -64 270 -150 296 -141
40 12 22 36 -54 71 -280 129 -349 237 -194 303 69 30 230 60 361 68 59 3 108
4 108 1 0 -3 -11 -31 -25 -61 -30 -70 -69 -208 -87 -307 -18 -110 -15 -355 6
-465 110 -561 511 -978 1066 -1106 122 -29 374 -36 500 -15 363 59 676 247
894 536 130 172 226 394 261 603 16 99 22 339 10 390 -4 15 -3 27 2 27 21 0
222 -84 307 -128 114 -58 196 -134 196 -180 0 -58 -104 -109 -273 -133 -156
-21 -162 -23 -162 -44 0 -18 7 -20 82 -18 190 3 380 69 419 144 26 51 12 94
-55 158 -72 71 -188 135 -377 210 -97 39 -151 66 -155 78 -4 10 -8 43 -8 74
-1 40 -7 64 -21 82 -11 13 -35 61 -54 105 -182 434 -574 747 -1032 827 -90 16
-280 26 -349 19z m100 -25 c4 -6 5 -12 4 -14 -2 -1 -53 -6 -114 -10 -87 -6
-108 -5 -98 5 6 7 49 16 95 20 46 4 88 8 95 9 6 0 15 -4 18 -10z m172 -5 c29
-3 56 -10 59 -16 5 -8 -17 -9 -77 -5 -46 4 -96 7 -111 7 -18 0 -28 5 -28 15 0
15 2 14 157 -1z m-412 -23 c-12 -10 -177 -43 -183 -36 -3 3 -1 5 4 5 5 0 41 9
79 20 76 21 115 25 100 11z m601 -12 c46 -12 83 -23 81 -25 -6 -6 -182 28
-191 37 -16 15 19 11 110 -12z m-356 -57 l0 -59 -122 -7 c-68 -4 -133 -9 -145
-13 -30 -7 -30 16 0 77 26 53 38 57 175 59 l92 1 0 -58z m214 51 c34 -5 41
-11 62 -57 30 -65 31 -80 1 -73 -12 4 -77 9 -145 13 l-122 7 0 59 0 58 83 0
c45 0 99 -3 121 -7z m-501 -65 c-14 -35 -26 -64 -27 -65 -4 -5 -251 -51 -254
-48 -7 7 61 97 88 116 14 10 68 27 120 38 52 11 96 20 97 20 1 1 -10 -27 -24
-61z m736 22 c34 -9 50 -22 87 -72 24 -33 43 -62 41 -64 -3 -4 -250 46 -256
52 -3 3 -51 116 -51 120 0 3 139 -25 179 -36z m-988 -58 c-16 -21 -35 -50 -42
-65 -8 -19 -24 -30 -50 -37 -21 -6 -71 -24 -111 -40 -39 -16 -73 -28 -75 -27
-7 7 102 119 131 135 36 20 157 71 169 71 5 1 -5 -16 -22 -37z m1186 -13 c61
-29 93 -52 127 -91 25 -29 46 -56 46 -60 0 -4 -19 1 -42 11 -24 10 -72 28
-108 39 -55 19 -69 28 -93 65 -15 23 -35 53 -44 66 -17 23 -17 24 7 16 14 -4
62 -24 107 -46z m-649 -51 l3 -38 -73 0 c-40 0 -111 -5 -157 -10 -47 -5 -86
-8 -88 -7 -1 2 2 19 8 39 l9 36 73 6 c225 19 221 19 225 -26z m224 26 l87 -6
7 -34 c3 -19 5 -37 3 -38 -2 -2 -40 0 -84 4 -44 5 -113 9 -152 9 l-73 1 0 41
0 41 63 -6 c34 -3 101 -8 149 -12z m-546 -46 c-3 -17 -7 -33 -9 -34 -1 -1 -59
-14 -128 -28 -69 -14 -134 -28 -143 -32 -20 -8 -20 -3 1 40 16 34 20 36 112
57 53 11 101 22 106 24 6 2 23 4 39 4 27 1 28 -1 22 -31z m832 2 c85 -20 91
-23 101 -52 6 -17 11 -34 11 -38 0 -5 -72 8 -250 47 -29 7 -35 13 -41 42 l-7
34 47 -6 c27 -3 89 -15 139 -27z m-1336 -77 c-26 -32 -132 -103 -132 -88 0 8
153 135 158 131 2 -3 -9 -22 -26 -43z m218 43 c0 -2 -6 -19 -14 -38 -12 -29
-23 -37 -73 -52 -32 -10 -82 -29 -112 -42 -30 -14 -56 -22 -58 -20 -3 2 3 18
11 35 18 34 47 52 156 92 75 28 90 32 90 25z m605 -56 l0 -55 -140 -7 c-76 -4
-150 -10 -163 -13 -24 -6 -24 -5 -20 49 3 31 7 58 10 61 7 7 202 23 263 21
l50 -1 0 -55z m277 43 l57 -5 7 -55 c3 -30 5 -55 3 -57 -2 -2 -35 0 -74 5 -38
4 -112 8 -162 8 l-93 1 0 61 0 62 103 -7 c56 -4 128 -9 159 -13z m399 2 c129
-45 170 -68 190 -107 11 -21 18 -38 17 -38 -2 0 -41 15 -88 33 -47 19 -97 37
-112 40 -25 7 -58 50 -58 77 0 13 -1 13 51 -5z m220 -52 c44 -36 79 -68 79
-70 0 -2 -26 11 -57 28 -33 18 -70 49 -85 70 -15 22 -25 39 -22 39 4 0 42 -30
85 -67z m-1231 5 c0 -61 -9 -77 -49 -84 -33 -5 -195 -39 -248 -51 -22 -5 -22
-5 -8 47 8 29 18 57 23 62 10 10 213 56 255 57 24 1 27 -2 27 -31z m879 -1
l94 -22 15 -53 c8 -29 12 -55 10 -58 -3 -3 -41 4 -84 15 -44 10 -112 25 -151
31 -73 12 -73 12 -73 43 0 18 -3 43 -7 56 -6 24 -6 24 48 18 30 -4 96 -17 148
-30z m-1199 -90 l-11 -54 -82 -28 c-45 -15 -99 -36 -120 -47 -22 -11 -41 -17
-44 -14 -3 2 3 28 12 56 14 42 24 54 58 72 49 25 190 78 195 73 2 -2 -1 -28
-8 -58z m1520 -17 c29 -15 39 -28 53 -71 9 -29 15 -54 13 -56 -1 -2 -27 7 -57
20 -30 13 -84 34 -121 46 -65 22 -68 24 -78 64 -6 23 -13 50 -16 59 -5 16 6
14 83 -13 48 -17 104 -39 123 -49z m131 -9 c22 -18 47 -47 56 -64 l16 -31 -24
17 c-13 9 -50 31 -81 49 -43 25 -60 42 -72 70 l-14 38 39 -23 c22 -12 58 -37
80 -56z m-1861 64 c0 -21 -36 -67 -63 -81 -17 -9 -51 -30 -74 -46 -48 -32 -51
-30 -25 14 22 39 162 136 162 113z m870 -149 l0 -133 -132 -7 c-73 -4 -152
-10 -177 -13 l-44 -6 7 134 c4 73 8 135 10 136 5 6 181 20 259 22 l77 1 0
-134z m234 124 c55 -5 103 -13 107 -17 4 -5 9 -66 11 -137 l3 -128 -52 6 c-29
3 -107 9 -173 13 l-120 6 0 134 0 133 63 0 c34 0 107 -5 161 -10z m326 -51
c52 -12 98 -24 102 -28 9 -8 33 -259 27 -266 -3 -2 -32 3 -64 12 -33 8 -103
23 -155 32 l-95 17 -6 60 c-4 32 -7 93 -8 135 l-1 76 53 -9 c28 -5 95 -18 147
-29z m-917 -96 c-3 -71 -8 -130 -10 -133 -10 -12 -251 -49 -282 -43 l-34 6 7
96 c10 135 11 139 60 152 87 24 202 47 233 48 l32 1 -6 -127z m-568 27 c-9
-28 -26 -56 -37 -63 -11 -7 -50 -31 -87 -54 -36 -23 -67 -40 -69 -38 -2 2 7
29 21 59 22 48 36 62 103 106 42 28 79 48 82 46 2 -3 -4 -28 -13 -56z m1930 8
c70 -47 81 -59 101 -108 12 -30 21 -56 19 -58 -1 -2 -28 15 -59 36 -30 22 -69
45 -85 52 -24 9 -34 24 -50 71 -11 32 -16 59 -12 59 4 0 43 -24 86 -52z m-126
-43 l59 -27 11 -74 c6 -41 11 -102 11 -135 l0 -59 -37 16 c-21 9 -78 31 -128
49 l-90 33 -6 100 c-4 55 -9 116 -13 135 l-7 36 70 -24 c39 -13 97 -36 130
-50z m-1563 13 c-3 -29 -6 -81 -6 -116 l0 -64 -127 8 c-71 3 -129 8 -131 9 -4
4 17 117 23 123 9 9 220 92 234 92 11 0 12 -11 7 -52z m1789 -14 c9 -15 12
-23 6 -20 -11 7 -35 46 -28 46 3 0 12 -12 22 -26z m-2195 -4 c-6 -11 -13 -20
-16 -20 -2 0 0 9 6 20 6 11 13 20 16 20 2 0 0 -9 -6 -20z m2182 -115 c49 -36
65 -70 83 -179 l6 -38 -83 7 c-46 4 -90 11 -98 15 -12 6 -19 39 -28 128 -6 66
-15 128 -19 137 -5 15 2 14 43 -9 27 -15 70 -42 96 -61z m-2047 23 c-4 -29 -8
-54 -10 -56 -1 -2 -38 -2 -81 0 l-79 3 79 53 c43 28 83 52 88 52 6 0 7 -21 3
-52z m-175 -5 c-12 -34 -24 -49 -39 -51 -12 -2 -21 1 -21 6 0 8 68 92 75 92 2
0 -5 -21 -15 -47z m2336 -67 l37 -71 -45 43 c-25 24 -51 60 -57 80 -7 20 -15
44 -18 52 -16 42 51 -42 83 -104z m-1206 -11 c0 -65 18 -62 -190 -35 -85 11
-156 20 -157 20 -2 0 -3 11 -3 24 0 23 3 24 88 31 48 3 96 7 107 9 11 2 50 4
88 5 l67 1 0 -55z m298 38 l52 -6 0 -69 0 -69 -57 6 c-32 3 -109 13 -170 22
l-113 17 0 59 0 60 118 -7 c64 -4 141 -9 170 -13z m-658 -34 c0 -19 -4 -21
-37 -15 -21 3 -56 6 -77 6 -49 0 -43 8 15 19 79 16 99 14 99 -10z m943 -15
c98 -24 107 -28 107 -49 0 -56 1 -56 -164 -49 -83 4 -155 10 -160 15 -5 4 -5
33 -1 64 l7 57 51 -6 c29 -4 100 -18 160 -32z m668 -93 c16 -25 29 -49 29 -54
0 -4 -19 -7 -42 -5 l-42 3 -12 65 c-7 36 -13 72 -13 80 -1 18 36 -24 80 -89z
m-2469 57 c-7 -7 -12 -8 -12 -2 0 14 12 26 19 19 2 -3 -1 -11 -7 -17z m38 -62
c-9 -46 -15 -56 -40 -64 -40 -15 -52 -42 -45 -110 5 -53 3 -59 -25 -92 l-31
-35 6 75 c9 99 39 190 83 248 60 80 72 74 52 -22z m210 34 c0 -44 -3 -51 -27
-63 -16 -8 -61 -17 -100 -21 -83 -7 -82 -9 -62 84 l11 50 89 0 89 0 0 -50z
m198 35 c-3 -3 -180 -75 -185 -75 -5 0 -4 76 1 81 2 2 46 3 96 1 51 -2 90 -5
88 -7z m82 -45 c0 -35 -3 -40 -23 -40 -12 0 -39 -8 -59 -18 -31 -16 -38 -17
-54 -4 -13 10 -35 12 -74 9 l-55 -6 30 16 c36 19 205 82 223 83 7 0 12 -14 12
-40z m192 28 c123 -10 138 -13 138 -30 0 -14 -8 -18 -32 -18 -17 0 -39 -7 -49
-16 -15 -13 -23 -14 -53 -4 -20 6 -68 10 -108 9 l-73 -2 -3 36 c-4 44 -17 42
180 25z m1316 -24 c53 -20 104 -40 112 -45 14 -8 -95 -4 -187 7 -41 5 -43 7
-43 40 0 19 5 34 10 34 6 0 55 -16 108 -36z m-1053 -3 c43 -6 47 -8 24 -15
-38 -11 -132 -3 -137 12 -4 14 33 15 113 3z m240 -93 c17 -16 27 -37 31 -70 9
-67 -1 -97 -36 -110 -37 -12 -38 -26 -5 -34 36 -9 45 -32 45 -122 l0 -79 -31
-7 c-17 -3 -53 -6 -79 -6 -57 0 -60 5 -60 96 l0 65 -52 -3 -53 -3 -3 -78 -3
-78 -82 3 -82 3 -3 210 c-1 115 0 215 2 222 4 10 50 13 195 13 183 0 191 -1
216 -22z m400 -53 l0 -70 -40 -5 -40 -5 -5 -145 -5 -145 -80 0 -80 0 -3 147
-3 147 -37 3 -37 3 -3 73 -3 72 168 -2 168 -3 0 -70z m235 60 c69 -3 153 -8
188 -11 l62 -6 0 -66 0 -65 -141 7 c-114 6 -140 4 -137 -6 3 -7 22 -14 44 -15
21 -2 76 -6 122 -9 l83 -6 -3 -56 -3 -57 -128 3 c-100 2 -128 -1 -125 -10 3
-9 45 -16 136 -22 l132 -8 0 -64 c0 -34 -3 -65 -7 -67 -10 -6 -433 20 -439 26
-9 8 19 422 29 435 6 7 21 11 36 8 14 -3 82 -7 151 -11z m-1132 -21 c37 -24
49 -68 56 -206 11 -191 -7 -215 -172 -225 -84 -5 -105 -3 -126 11 -48 31 -57
57 -67 200 -9 112 -8 139 4 163 28 53 51 65 139 73 97 9 133 6 166 -16z m-354
-42 c16 -106 16 -239 -1 -322 l-18 -85 -110 -12 c-60 -7 -116 -12 -124 -10 -7
1 -30 43 -51 94 -32 77 -41 112 -51 213 -6 66 -10 122 -8 125 12 11 150 21
158 11 5 -6 14 -71 21 -144 12 -123 20 -156 34 -133 4 5 0 69 -8 143 -9 73
-12 136 -8 139 11 11 43 17 103 18 l56 1 7 -38z m1916 29 c24 -7 25 -10 21
-74 -2 -43 1 -67 8 -67 10 0 18 32 23 95 3 25 8 31 33 33 16 2 53 1 82 -3 53
-6 53 -7 53 -41 0 -20 -14 -68 -31 -109 l-30 -73 15 -79 c8 -45 12 -92 7 -113
-7 -34 -7 -34 -58 -31 -29 1 -64 6 -80 10 -28 8 -28 9 -24 74 2 40 -1 67 -7
67 -12 0 -22 -35 -22 -82 0 -20 -6 -40 -12 -44 -13 -8 -56 -7 -120 2 -36 5
-38 8 -38 41 0 19 14 68 31 108 l31 74 -16 75 c-8 40 -12 90 -9 110 l6 36 56
-1 c31 -1 67 -4 81 -8z m-970 -188 c0 -29 -2 -29 -19 5 -10 18 -9 22 4 22 10
0 15 -9 15 -27z m-1350 -29 c0 -27 12 -76 31 -124 l31 -79 -42 -50 c-24 -28
-44 -51 -46 -51 -5 0 -25 107 -34 185 -8 76 -7 82 16 123 14 23 29 42 34 42 6
0 10 -20 10 -46z m-87 -25 c-5 -5 -7 7 -4 29 5 34 6 35 9 8 2 -16 0 -32 -5
-37z m2651 5 c10 -26 7 -129 -3 -118 -14 14 -26 134 -13 134 5 0 13 -7 16 -16z
m33 -6 c-3 -8 -6 -5 -6 6 -1 11 2 17 5 13 3 -3 4 -12 1 -19z m-2652 -212 c16
-84 16 -92 -2 -147 -10 -32 -21 -59 -24 -59 -7 0 -15 55 -25 176 -4 52 -2 101
7 140 l13 59 7 -40 c5 -22 15 -80 24 -129z m2663 39 c2 -57 -1 -143 -8 -192
l-13 -88 -12 45 c-7 25 -17 57 -23 72 -9 21 -7 47 8 115 11 48 20 108 20 133
0 35 3 41 12 32 8 -8 14 -53 16 -117z m-978 -16 c0 -5 -7 -9 -15 -9 -9 0 -12
6 -9 15 6 15 24 11 24 -6z m-1143 -21 c30 -18 52 -23 101 -22 38 1 62 -2 60
-8 -2 -6 -44 -25 -93 -42 -50 -18 -100 -38 -113 -45 -21 -11 -24 -9 -37 23
-19 46 -19 53 4 66 11 5 23 19 26 30 8 25 6 25 52 -2z m691 5 l72 -5 0 -154
c0 -115 -3 -156 -12 -158 -7 -3 -63 -7 -123 -10 l-111 -5 -22 137 c-28 174
-28 182 1 182 12 0 33 7 47 15 14 7 36 11 50 8 14 -3 58 -7 98 -10z m197 7 c3
-5 42 -10 85 -10 43 0 82 -5 85 -10 7 -11 -34 -292 -44 -309 -4 -6 -53 -7
-124 -4 l-117 6 0 156 0 157 33 11 c43 14 74 15 82 3z m-1264 -60 c29 -28 47
-70 30 -70 -5 0 -31 -26 -57 -57 -26 -32 -49 -58 -51 -58 -6 0 -37 79 -47 117
-5 21 2 37 36 79 38 48 42 51 52 34 6 -11 23 -31 37 -45z m699 50 c-8 -5 -22
-10 -30 -10 -13 0 -13 1 0 10 8 5 22 10 30 10 13 0 13 -1 0 -10z m940 -29 c73
-17 75 -18 73 -46 -2 -25 -58 -214 -83 -279 l-8 -22 -109 22 c-77 15 -107 25
-106 35 13 91 45 297 49 308 5 16 65 10 184 -18z m-784 -131 c30 -187 30 -180
-3 -180 -16 0 -63 -9 -106 -19 -71 -17 -78 -17 -86 -2 -9 18 -62 178 -85 258
l-15 53 37 9 c90 25 121 29 176 28 l60 -2 22 -145z m864 140 c12 -8 10 -10
-10 -9 -14 0 -34 4 -45 9 -17 7 -16 9 10 9 17 0 37 -4 45 -9z m-1127 -7 c-7
-2 -19 -2 -25 0 -7 3 -2 5 12 5 14 0 19 -2 13 -5z m1416 -9 c6 -6 -27 -89 -35
-87 -47 11 -232 89 -227 96 5 8 252 0 262 -9z m-1731 -54 c14 -41 14 -45 -3
-55 -10 -5 -50 -31 -89 -57 l-71 -47 -27 57 c-15 31 -27 62 -28 68 -1 25 72
67 129 74 31 4 60 6 65 5 6 0 16 -21 24 -45z m1865 35 c18 -9 45 -26 60 -39
l29 -23 -30 -66 -30 -66 -83 55 c-45 30 -86 54 -90 54 -4 0 0 23 9 50 l16 50
44 0 c24 0 58 -7 75 -15z m104 -9 c3 -2 1 -12 -4 -20 -8 -14 -13 -13 -43 10
l-35 26 39 -5 c21 -4 41 -8 43 -11z m176 -1 c-3 -9 -8 -14 -10 -11 -3 3 -2 9
2 15 9 16 15 13 8 -4z m-2343 -15 c-14 -10 -29 -15 -34 -10 -14 14 3 30 32 30
l27 0 -25 -20z m474 3 c2 -10 24 -79 47 -153 24 -74 43 -139 44 -143 0 -7
-168 -76 -186 -77 -8 0 -100 186 -128 257 l-20 52 102 40 c115 45 134 49 141
24z m1310 -19 c50 -20 95 -40 100 -45 10 -9 -53 -164 -102 -254 -20 -36 -33
-50 -47 -48 -16 1 -162 51 -173 59 -2 1 15 59 37 129 23 70 41 131 41 136 0
23 22 59 36 59 9 0 58 -16 108 -36z m539 12 c11 -15 2 -62 -20 -114 l-18 -42
-58 65 c-48 54 -57 68 -51 90 6 25 7 25 73 19 36 -4 70 -12 74 -18z m-2515
-111 c22 -64 22 -67 6 -118 -10 -28 -19 -59 -21 -67 -3 -8 -16 12 -30 44 -18
44 -23 68 -18 95 11 62 25 111 33 111 4 0 17 -29 30 -65z m187 -1 l28 -65 -35
-37 c-19 -20 -44 -50 -56 -65 l-21 -28 -31 60 c-26 52 -29 65 -19 84 16 30 89
117 98 117 5 0 21 -30 36 -66z m2274 -52 c6 -12 0 -35 -23 -79 l-31 -61 -56
67 -55 66 30 65 29 64 49 -53 c26 -29 52 -60 57 -69z m108 3 c4 -38 0 -62 -17
-100 l-23 -50 -12 45 c-6 25 -16 54 -22 65 -8 15 -4 36 15 89 l26 70 14 -34
c8 -19 16 -57 19 -85z m-2122 10 c15 -38 46 -106 69 -149 26 -51 37 -81 29
-83 -6 -2 -37 -22 -68 -44 -31 -22 -60 -37 -64 -34 -12 7 -113 160 -150 226
l-32 57 68 45 c88 58 107 67 114 59 3 -4 18 -38 34 -77z m1772 13 c23 -16 45
-33 48 -38 4 -6 -8 -36 -25 -68 -34 -60 -140 -222 -146 -222 -2 0 -34 20 -72
44 l-69 45 52 103 c28 57 61 127 73 156 l22 54 37 -23 c21 -12 57 -35 80 -51z
m-1967 -105 c14 -26 53 -90 88 -142 l63 -94 -29 -31 c-16 -17 -36 -41 -44 -54
l-16 -23 -52 59 c-81 93 -151 202 -141 221 13 23 91 111 99 111 4 0 18 -21 32
-47z m2094 -9 c26 -31 46 -61 46 -67 0 -17 -101 -163 -152 -220 l-43 -49 -39
51 c-21 28 -42 51 -47 51 -5 0 15 36 45 79 30 44 71 109 91 145 20 36 41 66
45 66 5 0 29 -25 54 -56z m-2280 -12 l28 -58 -17 -54 c-9 -30 -18 -59 -19 -64
-1 -6 -16 15 -34 45 -21 37 -29 63 -26 79 14 67 27 110 33 110 4 0 20 -26 35
-58z m2435 9 c18 -53 13 -92 -18 -144 l-28 -48 -20 63 -21 62 30 59 c31 62 38
63 57 8z m-1249 -150 l0 -158 -82 -6 c-46 -2 -86 -2 -90 2 -12 11 -69 294 -61
302 8 8 67 14 171 17 l62 2 0 -159z m241 143 c6 -4 -23 -155 -51 -267 -12 -47
-14 -49 -43 -43 -16 3 -54 6 -83 6 l-54 0 0 161 0 162 112 -7 c62 -4 115 -9
119 -12z m-462 -155 c17 -83 30 -153 27 -156 -8 -8 -137 -33 -145 -28 -8 4
-73 149 -110 242 l-20 51 67 16 c162 37 143 51 181 -125z m599 132 c45 -10 85
-21 89 -25 9 -9 -99 -268 -122 -294 -2 -2 -38 4 -80 13 -53 12 -75 21 -71 30
2 7 16 66 30 131 15 66 29 129 31 142 6 27 16 27 123 3z m-827 -113 c18 -46
45 -109 61 -140 15 -32 28 -62 28 -66 0 -5 -28 -20 -62 -33 l-61 -23 -24 30
c-36 43 -163 234 -163 244 0 8 153 68 176 69 7 1 26 -36 45 -81z m1043 52 c96
-37 96 -32 19 -145 -38 -55 -80 -116 -96 -136 l-27 -36 -64 25 -64 25 25 56
c35 78 82 187 94 217 10 29 19 29 113 -6z m-1690 -68 c25 -37 69 -93 97 -125
l50 -56 -13 -56 -13 -55 -58 58 c-32 31 -79 84 -104 117 -40 53 -44 64 -39 97
7 40 23 88 30 88 3 0 25 -31 50 -68z m2261 51 c3 -10 10 -38 15 -63 8 -43 6
-48 -33 -100 -22 -30 -68 -83 -101 -118 l-60 -63 -16 53 -16 53 58 69 c31 37
74 95 95 127 21 32 41 59 44 59 4 0 10 -8 14 -17z m67 -106 c-25 -51 -31 -57
-31 -35 -1 27 51 124 57 107 2 -5 -10 -37 -26 -72z m-2447 28 c14 -25 25 -56
23 -68 -3 -17 -10 -9 -31 37 -40 88 -36 105 8 31z m558 2 c14 -23 55 -84 92
-136 37 -51 63 -96 58 -100 -77 -52 -81 -53 -109 -34 -37 24 -205 214 -201
227 4 14 108 85 124 86 6 0 22 -19 36 -43z m1426 3 c75 -49 78 -42 -63 -188
-71 -73 -107 -103 -117 -98 -8 3 -31 17 -52 30 l-37 22 42 55 c24 30 67 92 97
137 29 45 57 82 61 82 4 0 35 -18 69 -40z m-1529 -146 c41 -47 93 -102 116
-122 l43 -37 -34 -36 -33 -37 -49 35 c-83 59 -203 167 -203 184 0 16 66 99 79
99 4 0 41 -39 81 -86z m1654 39 c20 -25 36 -50 36 -54 0 -11 -136 -132 -201
-178 l-56 -40 -31 38 -30 38 83 83 c46 46 96 100 112 121 15 21 33 39 39 39 6
0 28 -21 48 -47z m-1943 -108 c65 -68 77 -86 82 -122 3 -24 2 -43 -2 -43 -12
0 -114 111 -149 162 -34 49 -45 74 -56 123 l-6 30 27 -35 c15 -19 62 -71 104
-115z m2205 52 c-30 -62 -110 -162 -158 -199 l-35 -27 11 49 c9 38 24 62 71
112 34 34 76 83 95 107 44 55 53 32 16 -42z m-1158 -114 l3 -133 -39 0 c-46 0
-48 4 -98 155 l-33 100 42 6 c23 4 60 6 82 5 l40 -1 3 -132z m171 121 c6 -5
-23 -97 -57 -186 -26 -67 -27 -68 -64 -68 l-38 0 0 136 0 136 78 -7 c42 -4 79
-9 81 -11z m-319 -101 c18 -54 39 -111 47 -126 8 -16 13 -30 11 -32 -2 -1 -22
-6 -44 -10 -41 -6 -42 -5 -76 42 -44 60 -122 192 -117 197 6 6 92 24 121 25
25 1 28 -5 58 -96z m430 86 c27 -6 50 -16 50 -23 0 -15 -91 -169 -124 -209
-20 -25 -27 -27 -65 -21 -25 4 -40 11 -37 18 2 6 21 64 43 128 43 131 38 127
133 107z m-1122 -91 c29 -26 79 -66 111 -88 59 -41 59 -41 48 -76 -6 -19 -13
-34 -17 -34 -12 0 -123 70 -192 121 -73 54 -78 67 -57 128 13 37 3 41 107 -51z
m1802 31 c13 -48 11 -52 -70 -114 -57 -44 -169 -115 -182 -115 -4 0 -28 54
-28 65 0 1 42 34 93 73 50 39 107 86 126 106 19 19 38 33 42 30 5 -3 13 -23
19 -45z m-1289 10 c7 -18 40 -74 75 -125 l62 -92 -30 -13 c-29 -12 -31 -11
-139 97 -60 60 -109 111 -109 114 0 5 105 48 121 49 4 1 12 -13 20 -30z m744
10 c30 -11 55 -25 55 -30 0 -12 -156 -174 -192 -200 -24 -17 -31 -18 -53 -7
l-25 13 36 50 c20 28 54 83 76 123 22 39 41 72 44 72 2 0 28 -9 59 -21z m-790
-149 c104 -104 108 -110 90 -124 -18 -13 -25 -12 -65 11 -53 30 -151 99 -199
140 l-33 29 38 26 c22 15 44 27 49 27 6 1 60 -48 120 -109z m918 85 c20 -14
37 -28 37 -31 0 -11 -59 -57 -158 -124 -98 -66 -104 -69 -126 -55 -22 15 -22
16 83 124 58 60 111 109 116 110 6 0 27 -10 48 -24z m-1355 -134 c57 -39 107
-71 111 -73 4 -2 11 -17 14 -35 6 -31 5 -32 -18 -23 -43 16 -108 51 -167 89
-47 29 -60 44 -73 80 -20 59 -19 66 8 47 12 -9 68 -47 125 -85z m1767 52 c-8
-27 -15 -49 -15 -51 0 -1 -32 -23 -70 -48 -89 -57 -180 -99 -180 -81 1 39 17
59 74 91 33 19 90 57 126 85 36 27 68 50 72 50 4 1 1 -20 -7 -46z m-1460 -28
c47 -35 108 -77 135 -93 45 -26 48 -30 37 -46 -13 -17 -18 -17 -93 16 -85 37
-224 115 -224 125 0 7 51 63 57 63 2 0 41 -29 88 -65z m1139 33 c32 -41 36
-37 -142 -125 -123 -61 -134 -65 -149 -50 -9 9 -15 18 -12 20 2 2 35 23 73 47
37 24 95 65 128 92 33 26 64 48 69 48 4 0 19 -15 33 -32z m-1119 -143 c50 -23
100 -45 111 -49 27 -8 22 -49 -5 -42 -9 3 -36 10 -61 16 -25 7 -89 30 -143 52
l-98 41 7 31 c10 47 12 48 57 20 23 -14 83 -45 132 -69z m1165 44 c0 -22 -9
-30 -67 -57 -110 -49 -235 -85 -245 -70 -4 7 -7 15 -7 18 1 13 305 154 311
145 4 -5 8 -22 8 -36z m-570 10 c122 -19 220 -79 236 -144 13 -53 -52 -117
-156 -152 -43 -14 -85 -18 -195 -18 -122 1 -148 4 -198 24 -32 13 -76 40 -98
60 -50 48 -52 85 -9 135 74 83 248 123 420 95z m-761 -160 l24 -30 -54 21
c-63 25 -179 101 -195 128 -19 30 196 -83 225 -119z m1506 94 c-45 -41 -202
-129 -213 -119 -12 13 41 58 93 81 33 14 80 39 105 55 66 42 72 36 15 -17z
m-1296 -75 c76 -22 109 -48 59 -48 -31 0 -139 26 -215 51 -52 17 -63 25 -72
51 -6 17 -11 32 -11 34 0 1 35 -13 79 -32 43 -18 115 -44 160 -56z m1116 53
c-5 -26 -14 -32 -68 -50 -69 -23 -190 -51 -224 -51 -48 0 -9 26 70 48 45 13
114 38 152 56 39 18 72 32 73 30 2 -1 1 -16 -3 -33z m-1110 -106 c44 -9 87
-23 95 -31 14 -15 8 -16 -61 -11 -111 9 -176 26 -209 54 -17 14 -30 28 -30 33
0 4 28 0 63 -11 34 -10 98 -26 142 -34z m1065 25 c-22 -31 -56 -44 -159 -61
-145 -24 -179 6 -38 34 45 9 109 25 142 36 80 25 80 25 55 -9z m-1215 -56 c30
-21 5 -16 -35 7 -26 15 -29 18 -10 13 14 -4 34 -13 45 -20z m1235 21 c0 -2
-18 -14 -41 -26 -23 -11 -38 -15 -34 -9 4 7 21 18 39 26 36 16 36 15 36 9z
m-1058 -42 c108 -7 148 -26 78 -37 -62 -10 -145 4 -187 31 -30 19 -33 23 -13
18 14 -3 69 -9 122 -12z m940 -3 c-45 -28 -125 -42 -190 -34 -47 6 -51 8 -35
20 11 8 45 14 83 14 36 1 83 5 105 9 65 14 72 12 37 -9z m-763 -54 l23 -13
-23 -6 c-38 -10 -101 -8 -144 5 l-40 13 65 6 c36 3 72 6 80 7 8 1 26 -5 39
-12z m605 3 l51 -1 -35 -13 c-39 -15 -124 -18 -155 -5 -19 8 -19 8 5 19 14 6
38 8 54 6 16 -3 52 -5 80 -6z m-453 -39 c45 -6 103 -9 129 -5 37 5 49 3 61
-11 13 -16 4 -17 -146 -11 -88 4 -173 10 -190 13 l-30 7 35 13 c19 7 40 11 47
9 6 -2 49 -9 94 -15z m309 6 l35 -13 -57 -8 c-34 -4 -63 -3 -75 3 -15 9 -15
12 -3 16 8 2 22 7 30 9 22 8 31 7 70 -7z"/>
<path d="M2227 2814 c-17 -18 -3 -25 43 -22 28 2 51 8 53 13 2 11 -85 20 -96
9z"/>
<path d="M1828 2794 c-7 -6 0 -149 8 -173 3 -10 8 -11 15 -4 7 7 8 41 3 97 -6
80 -11 95 -26 80z"/>
<path d="M3886 3845 c-31 -89 -90 -173 -143 -206 -20 -12 -61 -33 -91 -45 -55
-22 -56 -23 -27 -30 53 -12 125 -54 164 -94 35 -36 80 -114 96 -165 6 -17 9
-14 19 17 22 62 64 124 112 167 47 41 134 80 182 82 16 0 5 5 -28 13 -124 26
-234 131 -270 256 -7 23 -8 24 -14 5z"/>
<path d="M4210 3259 c-19 -36 -52 -70 -79 -80 l-23 -9 33 -23 c19 -12 45 -40
59 -60 24 -37 24 -38 33 -15 14 38 58 77 95 84 l35 7 -37 12 c-46 16 -75 41
-91 79 l-13 29 -12 -24z"/>
</g>
</svg>
