<?xml version="1.0" standalone="no"?>
<!DOCTYPE svg PUBLIC "-//W3C//DTD SVG 20010904//EN"
 "http://www.w3.org/TR/2001/REC-SVG-20010904/DTD/svg10.dtd">
<svg version="1.0" xmlns="http://www.w3.org/2000/svg"
 width="500.000000pt" height="500.000000pt" viewBox="0 0 500.000000 500.000000"
 preserveAspectRatio="xMidYMid meet">

<g transform="translate(0.000000,500.000000) scale(0.100000,-0.100000)"
fill="#000000" stroke="none">
<path d="M2600 2711 l0 -89 -39 5 c-62 8 -109 -5 -152 -44 l-39 -35 0 36 0 37
-82 -3 -83 -3 -3 -53 -3 -53 -51 46 c-64 58 -133 79 -232 73 -70 -5 -137 -29
-180 -67 -18 -16 -18 -15 -2 16 9 18 16 35 16 38 0 3 -44 4 -97 3 l-97 -3 -56
-122 c-30 -67 -58 -124 -61 -127 -3 -4 -32 52 -64 124 l-57 130 -100 0 -99 0
70 -132 c38 -73 97 -182 130 -243 l59 -110 59 -3 58 -3 75 142 75 141 7 -62
c9 -80 46 -143 106 -181 64 -40 112 -52 207 -47 92 4 158 31 206 86 l29 33 0
-56 0 -55 85 0 85 0 0 130 c0 154 11 193 63 215 32 13 86 9 116 -9 6 -4 14 0
17 8 3 9 12 16 20 16 11 0 14 -25 14 -127 0 -146 11 -182 69 -220 38 -26 124
-31 180 -12 27 10 32 16 28 35 -2 13 -3 24 -1 24 2 0 24 -15 50 -32 44 -32 49
-33 147 -33 80 0 109 4 137 19 34 18 110 84 110 96 0 4 -26 19 -58 34 l-58 28
-40 -27 c-32 -22 -47 -26 -87 -22 -53 5 -92 33 -100 73 l-4 24 178 0 179 0 0
33 c0 103 -66 200 -157 231 -96 33 -218 12 -280 -46 l-23 -21 0 36 0 37 -55 0
-55 0 0 90 0 90 -80 0 -80 0 0 -89z m534 -212 c14 -11 26 -29 26 -40 0 -17 -8
-19 -90 -19 -100 0 -111 9 -65 55 31 32 91 34 129 4z m-1111 -49 c48 -54 36
-145 -25 -176 -49 -25 -96 -18 -134 20 -36 36 -44 78 -24 130 26 70 131 84
183 26z m790 3 c-15 -37 -14 -128 2 -165 5 -14 2 -18 -14 -18 -30 0 -41 36
-41 136 l0 84 34 0 35 0 -16 -37z"/>
<path d="M3289 2593 c11 -16 51 -68 90 -118 l69 -90 -28 -35 c-16 -19 -63 -77
-105 -127 l-76 -93 103 0 104 0 49 65 c27 36 52 65 56 65 4 0 29 -29 55 -65
l49 -64 103 -1 103 0 -23 29 c-13 16 -58 72 -100 124 -43 52 -78 98 -78 102 0
6 44 66 163 223 7 9 -12 12 -89 12 l-99 0 -39 -55 c-22 -30 -42 -55 -45 -55
-3 0 -24 25 -45 55 l-39 55 -99 0 -99 0 20 -27z"/>
</g>
</svg>
